<?xml version="1.0" encoding="UTF-8" standalone="no"?>
<!-- Created with Inkscape (http://www.inkscape.org/) -->

<svg
   xmlns:dc="http://purl.org/dc/elements/1.1/"
   xmlns:cc="http://creativecommons.org/ns#"
   xmlns:rdf="http://www.w3.org/1999/02/22-rdf-syntax-ns#"
   xmlns:svg="http://www.w3.org/2000/svg"
   xmlns="http://www.w3.org/2000/svg"
   xmlns:sodipodi="http://sodipodi.sourceforge.net/DTD/sodipodi-0.dtd"
   xmlns:inkscape="http://www.inkscape.org/namespaces/inkscape"
   width="34.148888mm"
   height="27.093334mm"
   viewBox="0 0 121 96.000003"
   id="svg2"
   version="1.1"
   inkscape:version="0.91 r13725"
   sodipodi:docname="logo_paths_inkscape.svg">
  <defs
     id="defs4" />
  <sodipodi:namedview
     id="base"
     pagecolor="#ffffff"
     bordercolor="#666666"
     borderopacity="1.0"
     inkscape:pageopacity="0.0"
     inkscape:pageshadow="2"
     inkscape:zoom="5.6"
     inkscape:cx="90.59804"
     inkscape:cy="65.01038"
     inkscape:document-units="px"
     inkscape:current-layer="layer1"
     showgrid="true"
     objecttolerance="10000"
     inkscape:snap-nodes="true"
     inkscape:snap-bbox="true"
     inkscape:object-paths="true"
     inkscape:snap-intersection-paths="false"
     inkscape:object-nodes="true"
     inkscape:snap-smooth-nodes="true"
     inkscape:snap-bbox-midpoints="true"
     fit-margin-top="0"
     fit-margin-left="0"
     fit-margin-right="0"
     fit-margin-bottom="0"
     inkscape:window-width="1920"
     inkscape:window-height="1017"
     inkscape:window-x="-8"
     inkscape:window-y="-8"
     inkscape:window-maximized="1"
     showguides="true"
     inkscape:guide-bbox="true">
    <inkscape:grid
       type="xygrid"
       id="grid4136"
       originx="-144.50001"
       originy="-444.50002" />
    <sodipodi:guide
       position="-14.500002,75.499996"
       orientation="0,1"
       id="guide4258" />
    <sodipodi:guide
       position="-19.500002,45.499995"
       orientation="0,1"
       id="guide4260" />
    <sodipodi:guide
       position="-14.500002,15.499994"
       orientation="0,1"
       id="guide4262" />
  </sodipodi:namedview>
  <metadata
     id="metadata7">
    <rdf:RDF>
      <cc:Work
         rdf:about="">
        <dc:format>image/svg+xml</dc:format>
        <dc:type
           rdf:resource="http://purl.org/dc/dcmitype/StillImage" />
        <dc:title></dc:title>
      </cc:Work>
    </rdf:RDF>
  </metadata>
  <g
     inkscape:label="Layer 1"
     inkscape:groupmode="layer"
     id="layer1"
     transform="translate(-144.5,-511.8622)">
    <path
       style="fill:#3c3cff;fill-opacity:1;fill-rule:evenodd;stroke:#000000;stroke-width:1.50000005;stroke-linecap:butt;stroke-linejoin:miter;stroke-opacity:1;stroke-miterlimit:4;stroke-dasharray:none"
       d="m 193.76451,577.38687 0,-5.00705 7.49033,0 0,5.00705 7.49032,0 0,-5.00705 7.49033,0 0,5.00705 7.49033,0 0,-5.00705 7.49032,0 0,5.00705 3.74517,0 0,30.04229 -44.94196,0 0,-30.04229 z"
       id="path4148-8"
       inkscape:connector-curvature="0"
       sodipodi:nodetypes="ccccccccccccccccc" />
    <path
       style="fill:#ffff00;fill-opacity:1;fill-rule:evenodd;stroke:#000000;stroke-width:1.50000005;stroke-linecap:butt;stroke-linejoin:miter;stroke-opacity:1;stroke-miterlimit:4;stroke-dasharray:none"
       d="m 163.8032,547.34458 0,-5.00705 7.49033,0 0,5.00705 7.49033,0 0,-5.00705 7.49032,0 0,5.00705 7.49033,0 0,-5.00705 7.49033,0 0,5.00705 3.74516,0 0,30.04229 -44.94196,0 0,-30.04229 z"
       id="path4148"
       inkscape:connector-curvature="0"
       sodipodi:nodetypes="ccccccccccccccccc" />
    <path
       style="fill:#00ff00;fill-opacity:1;fill-rule:evenodd;stroke:#000000;stroke-width:1.50000005;stroke-linecap:butt;stroke-linejoin:miter;stroke-opacity:1;stroke-miterlimit:4;stroke-dasharray:none"
       d="m 208.74516,547.34458 0,-5.00705 7.49033,0 0,5.00705 7.49033,0 0,-5.00705 7.49032,0 0,5.00705 7.49033,0 0,-5.00705 7.49033,0 0,5.00705 3.74516,0 0,30.04229 -44.94196,0 0,-30.04229 z"
       id="path4148-09"
       inkscape:connector-curvature="0"
       sodipodi:nodetypes="ccccccccccccccccc" />
    <path
       style="fill:#ff0000;fill-opacity:1;fill-rule:evenodd;stroke:#000000;stroke-width:1.50000005;stroke-linecap:butt;stroke-linejoin:miter;stroke-opacity:1;stroke-miterlimit:4;stroke-dasharray:none"
       d="m 178.80321,517.31992 0,-5.00705 7.49032,0 0,5.00705 7.49033,0 0,-5.00705 7.49033,0 0,5.00705 7.49032,0 0,-5.00705 7.49033,0 0,5.00705 3.74516,0 0,30.04229 -44.94196,0 0,-30.04229 z"
       id="path4148-0"
       inkscape:connector-curvature="0"
       sodipodi:nodetypes="ccccccccccccccccc" />
    <g
       style="font-style:normal;font-weight:normal;font-size:40px;line-height:125%;font-family:sans-serif;letter-spacing:0px;word-spacing:0px;fill:#000000;fill-opacity:1;stroke:none;stroke-width:1px;stroke-linecap:butt;stroke-linejoin:miter;stroke-opacity:1"
       id="text4298">
      <path
         d="m 192.24487,537.99573 1.52588,-0.91553 q 1.61133,2.96631 3.72315,2.96631 0.90332,0 1.69677,-0.41504 0.79346,-0.42725 1.2085,-1.13525 0.41504,-0.70801 0.41504,-1.50147 0,-0.90332 -0.61035,-1.77002 -0.84229,-1.19629 -3.07617,-2.88086 -2.2461,-1.69678 -2.79541,-2.45361 -0.95215,-1.26953 -0.95215,-2.74658 0,-1.17188 0.56152,-2.13623 0.56152,-0.96436 1.57471,-1.51368 1.02539,-0.56152 2.22168,-0.56152 1.26953,0 2.36816,0.63477 1.11084,0.62256 2.34375,2.30713 l -1.46484,1.11084 q -1.01319,-1.34278 -1.7334,-1.77002 -0.70801,-0.42725 -1.55029,-0.42725 -1.08643,0 -1.78223,0.65918 -0.68359,0.65918 -0.68359,1.62353 0,0.58594 0.24414,1.13526 0.24414,0.54931 0.89111,1.19629 0.354,0.34179 2.31934,1.79443 2.33154,1.72119 3.19824,3.06397 0.8667,1.34277 0.8667,2.69775 0,1.95312 -1.48926,3.39355 -1.47705,1.44043 -3.60108,1.44043 -1.63574,0 -2.9663,-0.86669 -1.33057,-0.87891 -2.45362,-2.92969 z"
         style="font-style:normal;font-variant:normal;font-weight:normal;font-stretch:normal;font-size:25px;line-height:125%;font-family:'Century Gothic';-inkscape-font-specification:'Century Gothic, Normal';text-align:start;writing-mode:lr-tb;text-anchor:start"
         id="path4326" />
    </g>
    <g
       style="font-style:normal;font-variant:normal;font-weight:normal;font-stretch:normal;font-size:25px;line-height:125%;font-family:'Century Gothic';-inkscape-font-specification:'Century Gothic, Normal';text-align:start;letter-spacing:0px;word-spacing:0px;writing-mode:lr-tb;text-anchor:start;fill:#000000;fill-opacity:1;stroke:none;stroke-width:1px;stroke-linecap:butt;stroke-linejoin:miter;stroke-opacity:1"
       id="text4302">
      <path
         d="m 175.87158,553.38391 2.0752,0 4.58984,7.39746 4.5166,-7.39746 2.0752,0 -5.68848,9.375 0,8.58154 -1.77002,0 0,-8.58154 -5.79834,-9.375 z"
         style=""
         id="path4320" />
    </g>
    <g
       style="font-style:normal;font-variant:normal;font-weight:normal;font-stretch:normal;font-size:25px;line-height:125%;font-family:'Century Gothic';-inkscape-font-specification:'Century Gothic, Normal';text-align:start;letter-spacing:0px;word-spacing:0px;writing-mode:lr-tb;text-anchor:start;fill:#000000;fill-opacity:1;stroke:none;stroke-width:1px;stroke-linecap:butt;stroke-linejoin:miter;stroke-opacity:1"
       id="text4306">
      <path
         d="m 236.27686,556.71643 -1.41602,1.08643 q -1.17188,-1.52588 -2.81982,-2.30713 -1.63575,-0.79346 -3.60108,-0.79346 -2.14844,0 -3.97949,1.0376 -1.83106,1.02539 -2.84424,2.77099 -1.00098,1.7334 -1.00098,3.90625 0,3.2837 2.2461,5.48096 2.2583,2.19727 5.68847,2.19727 3.77198,0 6.31104,-2.9541 l 1.41602,1.07421 q -1.34278,1.70899 -3.35694,2.64893 -2.00195,0.92773 -4.47998,0.92773 -4.71191,0 -7.43408,-3.1372 -2.28272,-2.64893 -2.28272,-6.39649 0,-3.94287 2.75879,-6.62842 2.771,-2.69775 6.9336,-2.69775 2.51465,0 4.54101,1.00098 2.02637,0.98877 3.32032,2.7832 z"
         style=""
         id="path4323" />
    </g>
    <g
       style="font-style:normal;font-variant:normal;font-weight:normal;font-stretch:normal;font-size:25px;line-height:125%;font-family:'Century Gothic';-inkscape-font-specification:'Century Gothic, Normal';text-align:start;letter-spacing:0px;word-spacing:0px;writing-mode:lr-tb;text-anchor:start;fill:#000000;fill-opacity:1;stroke:none;stroke-width:1px;stroke-linecap:butt;stroke-linejoin:miter;stroke-opacity:1"
       id="text4310">
      <path
         d="m 212.38403,582.93225 q 4.07715,0 6.82373,2.72217 2.74659,2.72217 2.74659,6.70166 0,3.94287 -2.74659,6.68945 -2.73437,2.74658 -6.67724,2.74658 -3.9917,0 -6.73828,-2.73437 -2.74659,-2.73438 -2.74659,-6.61621 0,-2.58789 1.24512,-4.79736 1.25733,-2.20948 3.41797,-3.45459 2.16064,-1.25733 4.67529,-1.25733 z m 0.0855,1.75781 q -1.98974,0 -3.77197,1.0376 -1.78223,1.0376 -2.7832,2.79541 -1.00098,1.75781 -1.00098,3.91846 0,3.19824 2.20947,5.40771 2.22168,2.19727 5.34668,2.19727 2.0874,0 3.85742,-1.01318 1.78223,-1.01319 2.771,-2.771 1.00098,-1.75781 1.00098,-3.90625 0,-2.13623 -1.00098,-3.85742 -0.98877,-1.7334 -2.79541,-2.771 -1.80664,-1.0376 -3.83301,-1.0376 z"
         style=""
         id="path4317" />
    </g>
  </g>
</svg>
